<svg width="10" height="11" viewBox="0 0 10 11" fill="none" xmlns="http://www.w3.org/2000/svg">
<g clip-path="url(#clip0_3_412)">
<g clip-path="url(#clip1_3_412)">
<path d="M2.53149 0.635763L2.39042 0.494691C2.59056 0.294549 2.91506 0.294549 3.1152 0.494693L7.50471 4.88422L2.53149 0.635763ZM2.53149 0.635763L2.39042 0.494692C2.19027 0.694836 2.19027 1.01933 2.39041 1.21948L6.67087 5.49995L2.39042 9.7804C2.19027 9.98054 2.19027 10.305 2.39042 10.5052C2.59056 10.7053 2.91506 10.7053 3.1152 10.5052L7.50487 6.11551M2.53149 0.635763L7.50487 6.11551M7.50487 6.11551C7.50492 6.11546 7.50497 6.11542 7.50501 6.11537C7.50501 6.11537 7.50501 6.11537 7.50502 6.11537C7.58588 6.03464 7.65004 5.93876 7.69383 5.83321C7.73766 5.72757 7.76022 5.61432 7.76022 5.49995C7.76022 5.38558 7.73766 5.27234 7.69384 5.1667C7.69383 5.1667 7.69383 5.16669 7.69383 5.16669L7.50487 6.11551ZM6.7806 5.39022L6.78041 5.39041C6.78047 5.39035 6.78054 5.39028 6.7806 5.39022ZM6.7807 5.60977C6.78066 5.60973 6.78063 5.6097 6.78059 5.60966L6.7807 5.60977Z" fill="white" stroke="white" stroke-width="0.4" stroke-linecap="round" stroke-linejoin="round"/>
</g>
</g>
<defs>
<clipPath id="clip0_3_412">
<rect width="9.99998" height="9.99998" fill="white" transform="translate(0 10.5) rotate(-90)"/>
</clipPath>
<clipPath id="clip1_3_412">
<rect width="9.99998" height="9.99998" fill="white" transform="translate(0 10.5) rotate(-90)"/>
</clipPath>
</defs>
</svg>
