<svg width="131" height="21" viewBox="0 0 131 21" fill="none" xmlns="http://www.w3.org/2000/svg">
<g clip-path="url(#clip0_4850_3310)">
<path d="M0.904785 11.5V3.5H3.75634C4.37874 3.5 4.89436 3.61328 5.30322 3.83984C5.71207 4.06641 6.01806 4.3763 6.22119 4.76953C6.42431 5.16016 6.52587 5.60026 6.52587 6.08984C6.52587 6.58203 6.42301 7.0247 6.21728 7.418C6.01416 7.8086 5.70686 8.1185 5.29541 8.3477C4.88655 8.5742 4.37223 8.6875 3.75244 8.6875H1.7915V7.6641H3.64306C4.03629 7.6641 4.3553 7.5964 4.60009 7.4609C4.84488 7.3229 5.02457 7.1354 5.13916 6.89844C5.25374 6.66146 5.31103 6.39193 5.31103 6.08984C5.31103 5.78776 5.25374 5.51953 5.13916 5.28516C5.02457 5.05078 4.84358 4.86719 4.59619 4.73438C4.3514 4.60156 4.02848 4.53516 3.62744 4.53516H2.11181V11.5H0.904785ZM10.0793 11.6211C9.51681 11.6211 9.02593 11.4922 8.60666 11.2344C8.18739 10.9766 7.86186 10.6159 7.63009 10.1523C7.39832 9.6888 7.28244 9.1471 7.28244 8.5273C7.28244 7.9049 7.39832 7.3607 7.63009 6.89453C7.86186 6.42839 8.18739 6.06641 8.60666 5.80859C9.02593 5.55078 9.51681 5.42188 10.0793 5.42188C10.6418 5.42188 11.1327 5.55078 11.5519 5.80859C11.9712 6.06641 12.2967 6.42839 12.5285 6.89453C12.7603 7.3607 12.8762 7.9049 12.8762 8.5273C12.8762 9.1471 12.7603 9.6888 12.5285 10.1523C12.2967 10.6159 11.9712 10.9766 11.5519 11.2344C11.1327 11.4922 10.6418 11.6211 10.0793 11.6211ZM10.0832 10.6406C10.4478 10.6406 10.7499 10.5443 10.9894 10.3516C11.229 10.1589 11.4061 9.9023 11.5207 9.582C11.6379 9.2617 11.6965 8.9089 11.6965 8.5234C11.6965 8.1406 11.6379 7.7891 11.5207 7.4687C11.4061 7.1458 11.229 6.88672 10.9894 6.69141C10.7499 6.49609 10.4478 6.39844 10.0832 6.39844C9.71603 6.39844 9.41134 6.49609 9.16916 6.69141C8.92957 6.88672 8.75119 7.1458 8.634 7.4687C8.51942 7.7891 8.46212 8.1406 8.46212 8.5234C8.46212 8.9089 8.51942 9.2617 8.634 9.582C8.75119 9.9023 8.92957 10.1589 9.16916 10.3516C9.41134 10.5443 9.71603 10.6406 10.0832 10.6406ZM15.078 11.5L13.3124 5.5H14.5194L15.6952 9.9062H15.7538L16.9335 5.5H18.1405L19.3124 9.8867H19.371L20.539 5.5H21.746L19.9843 11.5H18.7929L17.5741 7.168H17.4843L16.2655 11.5H15.078ZM25.0377 11.6211C24.4466 11.6211 23.9375 11.4948 23.5104 11.2422C23.0859 10.987 22.7578 10.6289 22.526 10.168C22.2968 9.7044 22.1823 9.1615 22.1823 8.5391C22.1823 7.9245 22.2968 7.3828 22.526 6.91406C22.7578 6.44531 23.0807 6.07943 23.4948 5.81641C23.9114 5.55339 24.3984 5.42188 24.9557 5.42188C25.2942 5.42188 25.6224 5.47786 25.9401 5.58984C26.2578 5.70182 26.5429 5.8776 26.7955 6.11719C27.0481 6.35677 27.2474 6.66797 27.3932 7.0508C27.539 7.431 27.6119 7.8932 27.6119 8.4375V8.8516H22.8424V7.9766H26.4674C26.4674 7.6693 26.4049 7.3971 26.2799 7.1602C26.1549 6.92057 25.9791 6.73177 25.7526 6.59375C25.5286 6.45573 25.2656 6.38672 24.9635 6.38672C24.6354 6.38672 24.3489 6.46745 24.1041 6.62891C23.8619 6.78776 23.6744 6.99609 23.5416 7.2539C23.4114 7.5091 23.3463 7.7865 23.3463 8.0859V8.7695C23.3463 9.1706 23.4166 9.5117 23.5573 9.793C23.7005 10.0742 23.8997 10.2891 24.1549 10.4375C24.4101 10.5833 24.7083 10.6562 25.0494 10.6562C25.2708 10.6562 25.4726 10.625 25.6549 10.5625C25.8372 10.4974 25.9948 10.401 26.1276 10.2734C26.2604 10.1458 26.3619 9.9883 26.4323 9.8008L27.5377 10C27.4492 10.3255 27.2903 10.6107 27.0612 10.8555C26.8346 11.0977 26.5494 11.2865 26.2057 11.4219C25.8645 11.5547 25.4752 11.6211 25.0377 11.6211ZM28.6878 11.5V5.5H29.8167V6.45312H29.8792C29.9886 6.13021 30.1813 5.8763 30.4574 5.69141C30.736 5.50391 31.0511 5.41016 31.4027 5.41016C31.4756 5.41016 31.5615 5.41276 31.6605 5.41797C31.7621 5.42318 31.8415 5.42969 31.8988 5.4375V6.55469C31.8519 6.54167 31.7686 6.52734 31.6488 6.51172C31.529 6.49349 31.4092 6.48437 31.2894 6.48437C31.0134 6.48437 30.7673 6.54297 30.5511 6.66016C30.3376 6.77474 30.1683 6.9349 30.0433 7.1406C29.9183 7.3437 29.8558 7.5755 29.8558 7.8359V11.5H28.6878ZM35.0606 11.6211C34.4695 11.6211 33.9603 11.4948 33.5333 11.2422C33.1088 10.987 32.7807 10.6289 32.5489 10.168C32.3197 9.7044 32.2051 9.1615 32.2051 8.5391C32.2051 7.9245 32.3197 7.3828 32.5489 6.91406C32.7807 6.44531 33.1036 6.07943 33.5176 5.81641C33.9343 5.55339 34.4213 5.42188 34.9786 5.42188C35.3171 5.42188 35.6452 5.47786 35.963 5.58984C36.2807 5.70182 36.5658 5.8776 36.8184 6.11719C37.071 6.35677 37.2702 6.66797 37.4161 7.0508C37.5619 7.431 37.6348 7.8932 37.6348 8.4375V8.8516H32.8653V7.9766H36.4903C36.4903 7.6693 36.4278 7.3971 36.3028 7.1602C36.1778 6.92057 36.002 6.73177 35.7755 6.59375C35.5515 6.45573 35.2885 6.38672 34.9864 6.38672C34.6583 6.38672 34.3718 6.46745 34.127 6.62891C33.8848 6.78776 33.6973 6.99609 33.5645 7.2539C33.4343 7.5091 33.3692 7.7865 33.3692 8.0859V8.7695C33.3692 9.1706 33.4395 9.5117 33.5801 9.793C33.7234 10.0742 33.9226 10.2891 34.1778 10.4375C34.433 10.5833 34.7312 10.6562 35.0723 10.6562C35.2937 10.6562 35.4955 10.625 35.6778 10.5625C35.8601 10.4974 36.0176 10.401 36.1505 10.2734C36.2833 10.1458 36.3848 9.9883 36.4551 9.8008L37.5606 10C37.4721 10.3255 37.3132 10.6107 37.084 10.8555C36.8575 11.0977 36.5723 11.2865 36.2286 11.4219C35.8874 11.5547 35.4981 11.6211 35.0606 11.6211ZM40.9568 11.6172C40.4724 11.6172 40.0402 11.4935 39.6599 11.2461C39.2823 10.9961 38.9855 10.6406 38.7693 10.1797C38.5558 9.7161 38.449 9.1602 38.449 8.5117C38.449 7.8633 38.5571 7.3086 38.7732 6.84766C38.992 6.38672 39.2915 6.03385 39.6717 5.78906C40.0519 5.54427 40.4829 5.42188 40.9646 5.42188C41.337 5.42188 41.6365 5.48438 41.8631 5.60937C42.0922 5.73177 42.2693 5.875 42.3943 6.03906C42.5219 6.20312 42.6209 6.34766 42.6912 6.47266H42.7615V3.5H43.9295V11.5H42.7889V10.5664H42.6912C42.6209 10.694 42.5193 10.8398 42.3865 11.0039C42.2563 11.168 42.0766 11.3112 41.8474 11.4336C41.6183 11.556 41.3214 11.6172 40.9568 11.6172ZM41.2146 10.6211C41.5506 10.6211 41.8344 10.5326 42.0662 10.3555C42.3006 10.1758 42.4777 9.9271 42.5974 9.6094C42.7198 9.2917 42.781 8.9219 42.781 8.5C42.781 8.0833 42.7211 7.7187 42.6014 7.4062C42.4816 7.0937 42.3058 6.85026 42.074 6.67578C41.8422 6.5013 41.5558 6.41406 41.2146 6.41406C40.8631 6.41406 40.5701 6.50521 40.3357 6.6875C40.1014 6.86979 39.9243 7.1185 39.8045 7.4336C39.6873 7.7487 39.6287 8.1042 39.6287 8.5C39.6287 8.901 39.6886 9.2617 39.8084 9.582C39.9282 9.9023 40.1053 10.1562 40.3396 10.3437C40.5766 10.5286 40.8683 10.6211 41.2146 10.6211ZM48.1614 11.5V3.5H49.3293V6.47266H49.3996C49.4673 6.34766 49.565 6.20312 49.6926 6.03906C49.8202 5.875 49.9973 5.73177 50.2239 5.60937C50.4504 5.48438 50.7499 5.42188 51.1223 5.42188C51.6067 5.42188 52.039 5.54427 52.4192 5.78906C52.7994 6.03385 53.0976 6.38672 53.3137 6.84766C53.5324 7.3086 53.6418 7.8633 53.6418 8.5117C53.6418 9.1602 53.5338 9.7161 53.3176 10.1797C53.1015 10.6406 52.8046 10.9961 52.427 11.2461C52.0494 11.4935 51.6184 11.6172 51.134 11.6172C50.7694 11.6172 50.4713 11.556 50.2395 11.4336C50.0103 11.3112 49.8306 11.168 49.7004 11.0039C49.5702 10.8398 49.4699 10.694 49.3996 10.5664H49.302V11.5H48.1614ZM49.3059 8.5C49.3059 8.9219 49.3671 9.2917 49.4895 9.6094C49.6119 9.9271 49.789 10.1758 50.0207 10.3555C50.2525 10.5326 50.5364 10.6211 50.8723 10.6211C51.2213 10.6211 51.5129 10.5286 51.7473 10.3437C51.9817 10.1562 52.1588 9.9023 52.2785 9.582C52.4009 9.2617 52.4621 8.901 52.4621 8.5C52.4621 8.1042 52.4022 7.7487 52.2824 7.4336C52.1653 7.1185 51.9882 6.86979 51.7512 6.6875C51.5168 6.50521 51.2239 6.41406 50.8723 6.41406C50.5338 6.41406 50.2473 6.5013 50.0129 6.67578C49.7811 6.85026 49.6054 7.0937 49.4856 7.4062C49.3658 7.7187 49.3059 8.0833 49.3059 8.5ZM55.2675 13.75C55.093 13.75 54.9342 13.7357 54.791 13.707C54.6477 13.681 54.541 13.6523 54.4707 13.6211L54.7519 12.6641C54.9654 12.7214 55.1555 12.7461 55.3222 12.7383C55.4889 12.7305 55.636 12.668 55.7636 12.5508C55.8938 12.4336 56.0084 12.2422 56.1074 11.9766L56.2519 11.5781L54.0566 5.5H55.3066L56.8261 10.1562H56.8886L58.4082 5.5H59.6621L57.1894 12.3008C57.0748 12.6133 56.929 12.8776 56.7519 13.0938C56.5748 13.3125 56.3639 13.4766 56.1191 13.5859C55.8743 13.6953 55.5904 13.75 55.2675 13.75Z" fill="#595959"/>
<path d="M70.8118 14.0093C69.8148 14.0093 68.4068 13.718 67 12.4527L68.1041 11.2255C70.0762 13.0007 72.1312 12.2996 72.7667 11.7067C72.8116 11.6653 72.8542 11.6238 72.8945 11.5812C70.8176 11.3786 69.2991 9.90727 69.1943 9.80367C67.6033 8.23797 67.2429 6.1104 68.3746 4.96028C69.5052 3.81132 71.6361 4.13483 73.2272 5.6971C73.3665 5.83064 74.9173 7.35027 75.2235 9.27867C76.1284 8.60287 76.7029 7.52297 76.7029 6.33604C76.7029 5.33904 76.3183 4.41574 75.6207 3.73764C74.8942 3.03076 73.8719 2.64163 72.7414 2.64163V0.990723C74.3036 0.990723 75.7347 1.54563 76.7719 2.55414C77.792 3.54653 78.3538 4.89005 78.3538 6.33604C78.3538 8.52687 77.0056 10.4645 75.037 11.2646C74.8125 11.861 74.4314 12.4125 73.8949 12.9133C73.3688 13.4037 72.3407 13.9482 71.0306 14.0035C70.958 14.0081 70.8867 14.0093 70.8118 14.0093ZM70.1165 5.91583C69.8862 5.91583 69.6882 5.978 69.5501 6.1196C69.1437 6.53291 69.4004 7.69457 70.3525 8.63047C70.3525 8.63047 70.3548 8.63397 70.3571 8.63507C70.3709 8.64777 71.8606 10.0938 73.6232 9.94527V9.94177C73.6313 8.38297 72.1001 6.90592 72.084 6.89096C72.0805 6.8875 72.0759 6.88404 72.0736 6.88059C71.5095 6.32453 70.7071 5.91583 70.1165 5.91583Z" fill="#08080D"/>
<path d="M89.346 5.65589C89.2539 5.15509 88.8406 4.37337 87.6836 4.37683C86.8224 4.38028 86.2595 4.93405 86.2618 5.53846C86.2641 6.03926 86.5864 6.43644 87.2553 6.56308L88.5286 6.80255C90.1864 7.11801 91.0775 8.19331 91.0821 9.47811C91.0867 10.878 89.9228 12.2964 87.8033 12.3033C85.388 12.3125 84.3161 10.7617 84.1699 9.46431L85.8128 9.02101C85.8934 9.92021 86.5254 10.7272 87.8102 10.7226C88.7612 10.7191 89.2861 10.2414 89.2838 9.59901C89.2815 9.07281 88.8821 8.66301 88.1752 8.52371L86.9019 8.27161C85.449 7.98141 84.5072 7.04661 84.5026 5.672C84.4969 4.05332 85.944 2.81456 87.6652 2.80765C89.8744 2.79959 90.7275 4.13276 90.9371 5.15969L89.346 5.65589Z" fill="#08080D"/>
<path d="M94.7937 8.68385L94.8063 12.1145L93.0334 12.1214L93 3.01269L96.4043 3.00003C98.2026 2.99312 99.4022 4.18352 99.4079 5.82868C99.4137 7.48655 98.2233 8.67235 96.425 8.67925L94.7937 8.68385ZM96.2017 7.14915C97.0881 7.14575 97.6258 6.62996 97.6235 5.84595C97.62 5.03661 97.0789 4.53697 96.1924 4.54042L94.7925 4.54503L94.8017 7.15265L96.2017 7.14915Z" fill="#08080D"/>
<path d="M103.425 8.57542L102.5 8.57882L102.513 12.0867H100.727L100.694 2.98486L104.253 2.9722C106.026 2.96529 107.161 4.18217 107.167 5.76286C107.171 7.03502 106.43 8.00092 105.236 8.35202L107.202 12.0706L105.223 12.0775L103.425 8.57542ZM103.934 7.04422C104.833 7.04072 105.358 6.525 105.356 5.78013C105.353 5.00879 104.824 4.51029 103.925 4.51374L102.485 4.51949L102.495 7.05002L103.934 7.04422Z" fill="#08080D"/>
<path d="M118.6 12.0703L114.439 5.62323L114.462 12.0853L112.689 12.0922L112.656 2.98338L114.865 2.97532L118.677 8.98719L118.655 2.96151L120.428 2.95459L120.461 12.0634L118.6 12.0703Z" fill="#08080D"/>
<path d="M110.723 12.0855L108.95 12.0924L108.916 2.98364L110.699 2.97559L110.723 12.0855Z" fill="#08080D"/>
<path d="M129.546 11.9716L129.426 10.9309C129.018 11.5491 128.121 12.1685 126.746 12.1743C124.293 12.1835 122.192 10.3921 122.18 7.45057C122.17 4.50794 124.36 2.68894 126.827 2.67973C129.217 2.67052 130.545 4.06701 131 5.4658L129.307 6.07596C129.073 5.26777 128.311 4.3318 126.834 4.33755C125.459 4.34216 123.972 5.28619 123.98 7.44477C123.988 9.50097 125.34 10.5625 126.869 10.5567C128.552 10.551 129.204 9.41697 129.304 8.77457L126.426 8.78487L126.42 7.24337L130.968 7.22727L130.985 11.9682L129.546 11.9716Z" fill="#08080D"/>
<path d="M116.474 18.9848V18.5552C116.46 18.6 116.418 18.6617 116.348 18.7404C116.28 18.8192 116.186 18.8908 116.066 18.9553C115.948 19.0179 115.808 19.0493 115.647 19.0493C115.443 19.0493 115.258 19.001 115.092 18.9043C114.927 18.8076 114.795 18.6724 114.697 18.4988C114.6 18.3234 114.552 18.1184 114.552 17.8839C114.552 17.6494 114.6 17.4453 114.697 17.2716C114.795 17.0963 114.927 16.9601 115.092 16.8635C115.258 16.765 115.443 16.7158 115.647 16.7158C115.807 16.7158 115.944 16.7445 116.061 16.8017C116.179 16.859 116.273 16.9253 116.343 17.0004C116.414 17.0756 116.456 17.1401 116.469 17.1938V16.7802H116.931V18.9848H116.474ZM115.014 17.8839C115.014 18.0432 115.049 18.181 115.118 18.2974C115.188 18.4138 115.279 18.5041 115.39 18.5686C115.502 18.6313 115.622 18.6626 115.749 18.6626C115.885 18.6626 116.007 18.6304 116.115 18.566C116.222 18.5015 116.307 18.411 116.37 18.2947C116.432 18.1766 116.464 18.0396 116.464 17.8839C116.464 17.7281 116.432 17.5921 116.37 17.4757C116.307 17.3576 116.222 17.2663 116.115 17.2019C116.007 17.1356 115.885 17.1025 115.749 17.1025C115.622 17.1025 115.502 17.1347 115.39 17.1992C115.279 17.2636 115.188 17.354 115.118 17.4703C115.049 17.5867 115.014 17.7245 115.014 17.8839Z" fill="#08080D"/>
<path d="M120.576 16.7158C120.739 16.7158 120.879 16.7517 120.995 16.8232C121.112 16.893 121.2 17.0004 121.261 17.1455C121.324 17.2904 121.355 17.4757 121.355 17.7013V18.9848H120.893V17.7953C120.893 17.5572 120.86 17.3782 120.794 17.2582C120.728 17.1383 120.607 17.0783 120.431 17.0783C120.338 17.0783 120.249 17.1043 120.163 17.1562C120.079 17.2063 120.009 17.2842 119.953 17.3898C119.9 17.4954 119.873 17.6306 119.873 17.7953V18.9848H119.438V17.7953C119.438 17.5572 119.397 17.3782 119.314 17.2582C119.232 17.1383 119.117 17.0783 118.968 17.0783C118.873 17.0783 118.784 17.1034 118.699 17.1535C118.617 17.2019 118.55 17.2788 118.498 17.3845C118.446 17.4901 118.42 17.627 118.42 17.7953V18.9848H117.956V16.7802H118.42V17.1186C118.44 17.0631 118.482 17.004 118.546 16.9413C118.613 16.8788 118.697 16.8259 118.799 16.7829C118.903 16.7382 119.018 16.7158 119.145 16.7158C119.278 16.7158 119.389 16.7426 119.478 16.7964C119.568 16.8501 119.638 16.9164 119.69 16.9951C119.742 17.072 119.778 17.1464 119.798 17.2179C119.823 17.141 119.871 17.064 119.943 16.987C120.014 16.9083 120.105 16.8438 120.214 16.7937C120.323 16.7418 120.444 16.7158 120.576 16.7158Z" fill="#08080D"/>
<path d="M124.149 18.9848V18.5552C124.135 18.6 124.093 18.6617 124.023 18.7404C123.955 18.8192 123.861 18.8908 123.741 18.9553C123.623 19.0179 123.483 19.0493 123.322 19.0493C123.118 19.0493 122.933 19.001 122.766 18.9043C122.602 18.8076 122.47 18.6724 122.372 18.4988C122.275 18.3234 122.227 18.1184 122.227 17.8839C122.227 17.6494 122.275 17.4453 122.372 17.2716C122.47 17.0963 122.602 16.9601 122.766 16.8635C122.933 16.765 123.118 16.7158 123.322 16.7158C123.482 16.7158 123.619 16.7445 123.736 16.8017C123.854 16.859 123.948 16.9253 124.018 17.0004C124.089 17.0756 124.131 17.1401 124.144 17.1938V16.7802H124.606V18.9848H124.149ZM122.688 17.8839C122.688 18.0432 122.723 18.181 122.793 18.2974C122.863 18.4138 122.953 18.5041 123.064 18.5686C123.177 18.6313 123.297 18.6626 123.424 18.6626C123.56 18.6626 123.682 18.6304 123.789 18.566C123.897 18.5015 123.982 18.411 124.044 18.2947C124.107 18.1766 124.138 18.0396 124.138 17.8839C124.138 17.7281 124.107 17.5921 124.044 17.4757C123.982 17.3576 123.897 17.2663 123.789 17.2019C123.682 17.1356 123.56 17.1025 123.424 17.1025C123.297 17.1025 123.177 17.1347 123.064 17.1992C122.953 17.2636 122.863 17.354 122.793 17.4703C122.723 17.5867 122.688 17.7245 122.688 17.8839Z" fill="#08080D"/>
<path d="M125.52 16.7808H127.443L126.124 18.6309H127.389V18.9854H125.37L126.688 17.1325H125.52V16.7808Z" fill="#08080D"/>
<path d="M128.535 17.9779C128.537 18.1103 128.565 18.2311 128.621 18.3404C128.676 18.4496 128.759 18.5364 128.868 18.6008C128.979 18.6653 129.115 18.6975 129.276 18.6975C129.412 18.6975 129.528 18.6778 129.623 18.6384C129.719 18.5973 129.798 18.5489 129.859 18.4934C129.92 18.4361 129.964 18.3851 129.99 18.3404L130.219 18.6223C130.16 18.7083 130.087 18.7835 130.001 18.8479C129.917 18.9123 129.814 18.9615 129.692 18.9955C129.571 19.0314 129.422 19.0493 129.247 19.0493C129.01 19.0493 128.805 18.9991 128.632 18.8989C128.46 18.7968 128.327 18.6564 128.234 18.4773C128.141 18.2965 128.095 18.0898 128.095 17.8571C128.095 17.6422 128.139 17.4489 128.226 17.277C128.314 17.1034 128.441 16.9664 128.608 16.8662C128.776 16.766 128.978 16.7158 129.214 16.7158C129.431 16.7158 129.619 16.7614 129.778 16.8528C129.939 16.9423 130.064 17.0694 130.152 17.234C130.241 17.3987 130.286 17.5957 130.286 17.8248C130.286 17.8392 130.285 17.8651 130.283 17.9027C130.281 17.9385 130.28 17.9635 130.278 17.9779H128.535ZM129.84 17.6261C129.838 17.5527 129.817 17.4722 129.776 17.3845C129.736 17.2967 129.672 17.2215 129.582 17.1588C129.493 17.0963 129.372 17.0649 129.22 17.0649C129.062 17.0649 128.935 17.0953 128.838 17.1562C128.744 17.2171 128.674 17.2914 128.629 17.3791C128.584 17.465 128.558 17.5473 128.551 17.6261H129.84Z" fill="#08080D"/>
<path d="M103.193 19.111C103.034 19.111 102.893 19.0794 102.769 19.0163C102.648 18.9532 102.552 18.8639 102.481 18.7486L102.436 19.0616H102.044V16.0972H102.481V17.3364C102.547 17.2404 102.637 17.1553 102.753 17.0811C102.868 17.007 103.016 16.97 103.197 16.97C103.395 16.97 103.569 17.0166 103.72 17.11C103.871 17.2033 103.989 17.331 104.074 17.4929C104.162 17.6549 104.206 17.8388 104.206 18.0447C104.206 18.2505 104.162 18.4344 104.074 18.5963C103.989 18.7556 103.871 18.8818 103.72 18.9752C103.569 19.0657 103.393 19.111 103.193 19.111ZM103.119 18.7322C103.306 18.7322 103.459 18.6691 103.58 18.5428C103.701 18.4138 103.761 18.2464 103.761 18.0405C103.761 17.906 103.734 17.7866 103.679 17.6823C103.624 17.578 103.549 17.497 103.453 17.4394C103.356 17.3789 103.245 17.3488 103.119 17.3488C102.932 17.3488 102.779 17.4133 102.658 17.5423C102.54 17.6713 102.481 17.8373 102.481 18.0405C102.481 18.2464 102.54 18.4138 102.658 18.5428C102.779 18.6691 102.932 18.7322 103.119 18.7322ZM104.662 19.9674L105.152 18.8928H105.032L104.225 17.0194H104.699L105.325 18.5305L105.979 17.0194H106.44L105.123 19.9674H104.662Z" fill="#08080D"/>
<path d="M112.143 18.4182H112.145L111.766 17.7613C111.709 17.6628 111.594 17.581 111.472 17.5554L111.461 17.5534C111.327 17.5288 111.206 17.5722 111.116 17.6923L111.109 17.7012L111.095 17.7229L111.082 17.7416L111.063 17.7692L111.042 17.8007L111.014 17.845L110.976 17.9051L110.925 17.9878H110.926L111.403 18.8477C111.522 19.0526 111.782 19.1226 111.987 19.0033C112.189 18.8861 112.26 18.631 112.149 18.4281L112.144 18.4193L112.143 18.4182Z" fill="#08080D"/>
<path d="M111.482 17.2576L111.494 17.2596L111.164 16.6874C111.068 16.5238 110.946 16.4421 110.768 16.4391H110.756C110.588 16.4391 110.446 16.5248 110.355 16.6775L110.349 16.6874L109.359 18.4023C109.24 18.6071 109.31 18.8672 109.516 18.9863C109.718 19.1036 109.974 19.0376 110.095 18.8396L110.199 18.6603L110.285 18.5136L110.347 18.4081L110.468 18.2033L110.54 18.0831L110.587 18.0043L110.657 17.889L110.713 17.7985L110.743 17.7512L110.784 17.6861L110.81 17.6467L110.822 17.628L110.865 17.564L110.879 17.5433L110.888 17.5305L110.904 17.5089C111.051 17.3138 111.262 17.2301 111.484 17.2587L111.482 17.2576Z" fill="#08080D"/>
<path d="M110.755 15C109.123 15 107.8 16.3228 107.8 17.955C107.8 19.5872 109.123 20.91 110.755 20.91C112.387 20.91 113.71 19.5872 113.71 17.955C113.71 16.3228 112.387 15 110.755 15ZM112.133 19.2266C111.799 19.4208 111.373 19.3094 111.173 18.9775L111.168 18.9676L110.766 18.2427L110.756 18.2594L110.674 18.3963L110.644 18.4475L110.552 18.6032L110.382 18.8967L110.338 18.9725C110.142 19.3104 109.712 19.4256 109.375 19.2296C109.041 19.0356 108.925 18.612 109.112 18.2761L109.118 18.2663L110.109 16.5494C110.247 16.3071 110.483 16.1624 110.757 16.1624C111.031 16.1624 111.252 16.2953 111.397 16.5366L111.404 16.5494L112.394 18.2643H112.392L112.397 18.2742C112.584 18.6101 112.469 19.0336 112.134 19.2277L112.133 19.2266Z" fill="#08080D"/>
</g>
<defs>
<clipPath id="clip0_4850_3310">
<rect width="131" height="21" fill="white"/>
</clipPath>
</defs>
</svg>
